# Blender v2.82 (sub 7) OBJ File: 'plane.blend'
# www.blender.org
mtllib irreg.mtl
o Plane
v -3.311590 -1.518337 -0.000000
v 0.776006 -1.518337 -0.000000
v -3.311590 2.569259 0.000000
v 0.776006 2.569259 0.000000
v -1.267792 -1.518337 -0.000000
v -1.267792 3.150410 0.000000
v -4.847752 0.525461 0.000000
v 1.478594 0.525461 0.000000
v -1.267792 0.816037 0.000000
vt 0.500000 0.500000
vt 1.000000 0.500000
vt 1.000000 1.000000
vt 0.500000 1.000000
vt 0.000000 0.500000
vt 0.000000 1.000000
vt 0.000000 0.000000
vt 0.500000 0.000000
vt 1.000000 0.000000
vn -0.0000 -0.0000 1.0000
g Plane_Plane_Material.001
usemtl Material.001
s off
f 9/1/1 8/2/1 4/3/1 6/4/1
f 7/5/1 9/1/1 6/4/1 3/6/1
f 1/7/1 5/8/1 9/1/1 7/5/1
f 5/8/1 2/9/1 8/2/1 9/1/1
