# Blender v2.82 (sub 7) OBJ File: ''
# www.blender.org
mtllib open.mtl
o Circle
v -1.431049 -0.284325 -0.013670
v -1.459085 -0.000000 -0.000000
v -1.431049 0.284325 0.013670
v -1.348019 0.557723 0.026815
v 0.810625 1.211784 0.058262
v 1.031729 1.030538 0.049548
v 1.213185 0.809688 0.038929
vt 0.000000 0.000000
vt 0.000000 0.000000
vt 0.000000 0.000000
vt 0.000000 0.000000
vt 0.000000 0.000000
vt 0.000000 0.000000
vt 0.000000 0.000000
vn -0.0000 0.0480 -0.9988
usemtl None
s off
f 6/1/1 4/2/1 5/3/1
f 4/2/1 6/1/1 3/4/1
f 7/5/1 2/6/1 6/1/1
f 2/6/1 7/5/1 1/7/1
