# Blender v2.82 (sub 7) OBJ File: ''
# www.blender.org
mtllib star.mtl
o Circle
v 0.000000 0.992761 -0.120110
v -0.195090 0.973685 -0.117802
v -0.382683 0.917191 -0.110967
v -0.555570 0.825450 -0.099868
v -0.707107 0.701988 -0.084931
v -0.831470 0.551548 -0.066730
v -0.923880 0.379913 -0.045964
v -0.980785 0.193678 -0.023432
v -1.000000 0.000000 -0.000000
v -0.980785 -0.193678 0.023432
v -0.923880 -0.379913 0.045964
v -0.831470 -0.551548 0.066730
v -0.707107 -0.701988 0.084931
v -0.555570 -0.825450 0.099868
v -0.382683 -0.917191 0.110967
v -0.195090 -0.973685 0.117802
v 0.000000 -0.992761 0.120110
v 0.195091 -0.973685 0.117802
v 0.382684 -0.917191 0.110967
v 0.555571 -0.825450 0.099868
v 0.707107 -0.701987 0.084931
v 0.831470 -0.551548 0.066730
v 0.923880 -0.379912 0.045964
v 0.980785 -0.193677 0.023432
v 1.000000 0.000001 -0.000000
v 0.980785 0.193679 -0.023432
v 0.923879 0.379914 -0.045964
v 0.831469 0.551549 -0.066730
v 0.707106 0.701989 -0.084931
v 0.555569 0.825451 -0.099868
v 0.382682 0.917192 -0.110967
v 0.195089 0.973685 -0.117802
vt 0.000000 0.000000
vt 0.000000 0.000000
vt 0.000000 0.000000
vt 0.000000 0.000000
vt 0.000000 0.000000
vt 0.000000 0.000000
vn 0.0000 0.1201 0.9928
vn 0.0000 -0.1201 -0.9928
usemtl None
s off
f 2/1/1 14/2/1 24/3/1
f 20/4/2 8/5/2 29/6/2
l 2 1
l 3 2
l 4 3
l 5 4
l 6 5
l 7 6
l 8 7
l 9 8
l 10 9
l 11 10
l 12 11
l 13 12
l 14 13
l 15 14
l 16 15
l 17 16
l 18 17
l 19 18
l 20 19
l 21 20
l 22 21
l 23 22
l 24 23
l 25 24
l 26 25
l 27 26
l 28 27
l 29 28
l 30 29
l 31 30
l 32 31
l 1 32
